<svg id="Слой_1" data-name="Слой 1" xmlns="http://www.w3.org/2000/svg" viewBox="0 0 80 80"><defs><style>.cls-1{opacity:0.7;}.cls-2{fill:#fff7ca;}.cls-3{fill:#f90;}</style></defs><g class="cls-1"><rect class="cls-2" width="80" height="80" rx="20"/></g><path class="cls-3" d="M48.27,31.51V47A8.12,8.12,0,0,1,32,47V30a5.91,5.91,0,1,1,11.81,0v15.5a3.69,3.69,0,1,1-7.38,0v-14h1.47v14a2.22,2.22,0,0,0,2.22,2.21,2.22,2.22,0,0,0,2.21-2.21V30a4.43,4.43,0,0,0-8.86,0V47a6.65,6.65,0,0,0,13.29,0V31.51Z" transform="translate(0)"/></svg>